<svg version="1.1" xmlns="http://www.w3.org/2000/svg" xmlns:xlink="http://www.w3.org/1999/xlink" width="512px" height="512px" viewBox="0,0,255.99431,255.99431"><g fill="#2a2a2a" fill-rule="nonzero" stroke="none" stroke-width="1" stroke-linecap="butt" stroke-linejoin="miter" stroke-miterlimit="10" stroke-dasharray="" stroke-dashoffset="0" font-family="none" font-weight="none" font-size="none" text-anchor="none" style="mix-blend-mode: normal"><path d="M63.99858,255.99431c-35.34544,0 -63.99858,-28.65314 -63.99858,-63.99858v-127.99715c0,-35.34544 28.65314,-63.99858 63.99858,-63.99858h127.99715c35.34544,0 63.99858,28.65314 63.99858,63.99858v127.99715c0,35.34544 -28.65314,63.99858 -63.99858,63.99858z" id="shape"></path></g><g fill="#ffffff" fill-rule="evenodd" stroke="none" stroke-width="1" stroke-linecap="butt" stroke-linejoin="miter" stroke-miterlimit="10" stroke-dasharray="" stroke-dashoffset="0" font-family="none" font-weight="none" font-size="none" text-anchor="none" style="mix-blend-mode: normal"><g transform="scale(16,16)"><path d="M14.53,10.47l-2.469,-2.47l2.469,-2.47c0.293,-0.292 0.293,-0.768 0,-1.06c-0.292,-0.293 -0.768,-0.293 -1.06,0l-3,3c-0.293,0.293 -0.293,0.767 0,1.06l3,3c0.292,0.293 0.768,0.293 1.06,0c0.293,-0.292 0.293,-0.768 0,-1.06zM1.47,5.53l2.469,2.47l-2.469,2.47c-0.293,0.292 -0.293,0.768 0,1.06c0.292,0.293 0.768,0.293 1.06,0l3,-3c0.293,-0.293 0.293,-0.767 0,-1.06l-3,-3c-0.292,-0.293 -0.768,-0.293 -1.06,0c-0.293,0.292 -0.293,0.768 0,1.06zM10.47,1.47l-2.47,2.469l-2.47,-2.469c-0.292,-0.293 -0.768,-0.293 -1.06,0c-0.293,0.292 -0.293,0.768 0,1.06l3,3c0.293,0.293 0.767,0.293 1.06,0l3,-3c0.293,-0.292 0.293,-0.768 0,-1.06c-0.292,-0.293 -0.768,-0.293 -1.06,0zM5.53,14.53l2.47,-2.469l2.47,2.469c0.292,0.293 0.768,0.293 1.06,0c0.293,-0.292 0.293,-0.768 0,-1.06l-3,-3c-0.293,-0.293 -0.767,-0.293 -1.06,0l-3,3c-0.293,0.292 -0.293,0.768 0,1.06c0.292,0.293 0.768,0.293 1.06,0z"></path></g></g></svg>